<?xml version="1.0" standalone="no"?>
<!DOCTYPE svg PUBLIC "-//W3C//DTD SVG 20010904//EN"
 "http://www.w3.org/TR/2001/REC-SVG-20010904/DTD/svg10.dtd">
<svg version="1.0" xmlns="http://www.w3.org/2000/svg"
 width="3500.000000pt" height="2332.000000pt" viewBox="0 0 3500.000000 2332.000000"
 preserveAspectRatio="xMidYMid meet">

<g transform="translate(0.000000,2332.000000) scale(0.100000,-0.100000)"
fill="#000000" stroke="none">
<path d="M17025 20109 c-33 -11 -323 -21 -485 -17 -307 6 -1333 -6 -1361 -17
-24 -9 -459 -11 -462 -2 -3 9 -335 -6 -520 -24 -60 -5 -134 -17 -165 -25 -38
-10 -119 -17 -242 -20 -163 -4 -189 -7 -219 -25 -31 -18 -35 -19 -43 -5 -8 15
-12 14 -41 0 -42 -22 -42 -21 -27 -39 11 -13 10 -19 -6 -36 -15 -16 -16 -24
-6 -39 7 -12 8 -21 2 -25 -19 -12 -10 -64 15 -89 14 -14 25 -35 25 -47 0 -29
29 -75 57 -90 17 -9 23 -19 19 -34 -3 -11 -10 -67 -16 -125 -37 -334 -139
-539 -560 -1130 -467 -655 -505 -727 -532 -1000 -16 -163 -23 -13248 -7
-13320 37 -170 63 -244 117 -336 101 -172 277 -325 642 -556 95 -61 257 -237
310 -338 13 -25 80 -106 151 -185 21 -22 55 -62 77 -90 22 -27 55 -64 73 -81
65 -60 238 -108 424 -118 50 -2 140 -9 200 -16 83 -8 193 -7 445 2 219 9 530
11 900 8 311 -3 1089 -5 1730 -5 641 0 1415 2 1720 5 305 3 607 3 670 2 74 -3
128 1 150 8 19 7 116 17 215 21 417 20 521 26 536 33 8 4 27 3 40 -2 31 -12
198 2 264 23 76 23 108 47 171 127 32 40 88 107 125 148 36 41 104 125 151
185 107 138 204 231 338 325 459 321 573 449 656 735 l29 100 0 6540 c0 6915
1 6769 -45 6951 -40 160 -129 306 -498 822 -445 621 -552 838 -568 1157 l-6
120 42 50 c23 27 47 61 55 75 16 31 25 203 13 247 -10 37 7 33 -183 37 -79 1
-120 6 -147 19 -31 14 -45 15 -87 5 -39 -9 -80 -8 -198 5 -203 23 -448 36
-768 43 -149 3 -295 7 -325 9 -30 1 -271 6 -535 10 -264 4 -599 12 -745 17
-368 14 -1527 19 -1565 7z"/>
</g>
</svg>
